<svg width="423" height="137" viewBox="0 0 423 137" fill="none" xmlns="http://www.w3.org/2000/svg">
<path d="M135.297 45.1648L76.9655 4.77242C74.8009 3.38504 72.3238 2.65213 69.7992 2.65213C67.2745 2.65213 64.7974 3.38504 62.6328 4.77242L5.98608 43.983C4.71604 44.7669 3.65872 45.8898 2.91788 47.2417C2.17704 48.5936 1.77816 50.1279 1.76039 51.6941C1.74261 53.2603 2.10655 54.8045 2.81649 56.1751C3.52643 57.5457 4.55796 58.6957 5.80983 59.5122L62.5905 100.868C64.733 102.32 67.2119 103.107 69.7495 103.14C72.287 103.174 74.7832 102.452 76.9584 101.056L135.297 60.6714C136.574 59.8888 137.636 58.7601 138.374 57.3994C139.111 56.0388 139.5 54.4942 139.5 52.9219C139.5 51.3496 139.111 49.805 138.374 48.4444C137.636 47.0837 136.574 45.955 135.297 45.1724V45.1648ZM71.1422 91.4212C70.7525 91.5993 70.3321 91.6881 69.9082 91.6816C69.4843 91.6751 69.0665 91.5736 68.6817 91.3835L14.3967 51.8718L68.4773 14.4001C68.894 14.21 69.3425 14.112 69.7956 14.112C70.2488 14.112 70.6973 14.21 71.114 14.4001L126.746 52.9031L71.1422 91.4212Z" fill="#0080D4"/>
<path d="M62.6317 35.9964L31.9219 57.2539L41.524 64.2771L68.4761 45.624C68.8928 45.4339 69.3413 45.3359 69.7945 45.3359C70.2476 45.3359 70.6961 45.4339 71.1128 45.624L98.8687 64.8341L108.739 58.0142L76.9643 35.9964C74.799 34.6113 72.3222 33.8798 69.798 33.8798C67.2738 33.8798 64.797 34.6113 62.6317 35.9964Z" fill="#0080D4"/>
<path d="M135.297 76.3737L129.22 72.1659L119.35 78.9858L126.767 84.127L71.1351 122.63C70.747 122.811 70.3282 122.904 69.9049 122.904C69.4816 122.904 69.0628 122.811 68.6747 122.63L14.3897 83.1108L21.4397 78.2406L11.8023 71.1873L5.98608 75.207C4.71604 75.9908 3.65872 77.1138 2.91788 78.4657C2.17704 79.8175 1.77816 81.3519 1.76039 82.918C1.74261 84.4842 2.10655 86.0284 2.81649 87.3991C3.52643 88.7697 4.55796 89.9197 5.80983 90.7362L62.5905 132.077C64.7328 133.531 67.2123 134.318 69.7504 134.35C72.2885 134.381 74.7847 133.657 76.9584 132.258L135.29 91.8728C136.567 91.0902 137.629 89.9615 138.366 88.6008C139.104 87.2401 139.493 85.6956 139.493 84.1233C139.493 82.5509 139.104 81.0064 138.366 79.6457C137.629 78.2851 136.567 77.1564 135.29 76.3737H135.297Z" fill="#0080D4"/>
<path d="M206.981 53.2343C203.734 47.7142 198.888 44.9541 192.444 44.9541C189.381 44.8993 186.344 45.5726 183.554 46.9253C180.765 48.2779 178.291 50.2761 176.314 52.7751C171.929 58.1497 169.736 65.1478 169.736 73.7692C169.736 82.3907 172.035 89.4916 176.631 95.072C178.659 97.6368 181.194 99.6895 184.054 101.082C186.914 102.475 190.027 103.173 193.171 103.126C199.751 103.126 204.634 99.7666 207.82 93.0471L209.301 101.546H219.594V23.7793H206.981V53.2343ZM206.981 77.1415C207.031 78.9866 206.727 80.823 206.088 82.5381C205.449 84.2532 204.489 85.8108 203.266 87.1154C202.143 88.4006 200.771 89.4098 199.246 90.0731C197.722 90.7365 196.08 91.0381 194.435 90.9572C192.79 90.8763 191.182 90.4148 189.721 89.6046C188.259 88.7944 186.981 87.6548 185.972 86.2648C183.566 83.1334 182.363 78.9983 182.363 73.8596C182.363 68.7208 183.538 64.6234 185.888 61.5672C186.931 60.1212 188.274 58.9537 189.812 58.1568C191.35 57.3599 193.04 56.9555 194.75 56.9755C198.289 56.9755 201.109 58.1071 203.21 60.3703C205.599 62.9318 206.953 66.3907 206.981 70.0055V77.1415Z" fill="#212225"/>
<path d="M260.039 44.9616C253.252 44.9616 248.082 48.4368 244.529 55.3871V23.7718H232.029V101.508H244.55V76.0275C244.691 69.6793 245.946 64.9119 248.315 61.7253C250.684 58.5386 253.532 56.9529 256.859 56.9679C260.182 56.9679 262.767 58.0067 264.614 60.0843C266.461 62.1619 267.38 65.2406 267.371 69.3205V101.5H279.885V69.328C279.885 61.9963 278.275 56.1023 275.055 51.646C271.836 47.1897 266.83 44.9616 260.039 44.9616Z" fill="#212225"/>
<path d="M304.398 46.3241H291.877V101.508H304.398V46.3241Z" fill="#212225"/>
<path d="M298.137 20.8285C295.665 20.8285 293.754 21.5286 292.405 22.9287C291.718 23.6827 291.185 24.58 290.838 25.5645C290.491 26.5489 290.338 27.5992 290.389 28.6496C290.337 29.7001 290.49 30.7506 290.837 31.7352C291.184 32.7197 291.718 33.6169 292.405 34.3704C293.752 35.7706 295.662 36.4631 298.137 36.4631C300.611 36.4631 302.437 35.7706 303.812 34.3704C304.514 33.6257 305.062 32.7313 305.419 31.7457C305.776 30.76 305.935 29.7051 305.885 28.6496C305.935 27.5941 305.776 26.5391 305.419 25.5535C305.062 24.5678 304.514 23.6735 303.812 22.9287C302.444 21.5286 300.541 20.8285 298.137 20.8285Z" fill="#212225"/>
<path d="M348.544 71.9325L336.34 67.0623C332.167 65.7726 330.08 63.8079 330.08 61.1683C330.08 59.6628 330.841 58.3204 332.364 57.1411C333.88 55.9743 336.023 55.3872 338.78 55.3872C341.536 55.3872 343.665 55.9216 345.125 56.9755C345.82 57.4375 346.403 58.0683 346.827 58.8165C347.251 59.5647 347.504 60.4091 347.564 61.2812H359.345C359.294 59.0133 358.766 56.7867 357.801 54.7658C356.836 52.745 355.457 50.9816 353.768 49.6061C350.196 46.5098 345.104 44.9616 338.491 44.9616C331.878 44.9616 326.607 46.3793 322.678 49.2146C318.748 52.045 316.784 55.8087 316.784 60.5058C316.784 67.5315 320.957 72.5925 329.305 75.6888L340.585 79.9869C342.372 80.503 344.061 81.3487 345.576 82.4861C346.106 82.9501 346.525 83.5409 346.801 84.2105C347.076 84.8802 347.2 85.6098 347.162 86.3401C347.162 87.9962 346.295 89.4565 344.568 90.6985C342.583 92.0192 340.271 92.6698 337.934 92.5653C330.935 92.5653 327.361 89.9608 327.211 84.7518H315.543C315.613 90.5731 317.728 95.0896 321.888 98.3013C326.047 101.513 331.572 103.121 338.463 103.126C345.325 103.126 350.842 101.39 355.016 97.9174C359.049 94.5902 361.065 90.6634 361.065 86.1369C361.122 84.5304 360.863 82.929 360.306 81.4356C359.749 79.9422 358.905 78.5897 357.829 77.4652C355.686 75.212 352.591 73.3678 348.544 71.9325Z" fill="#212225"/>
<path d="M383.562 89.2683V86.5659C383.543 85.6421 383.709 84.7247 384.048 83.8746C384.387 83.0245 384.892 82.2612 385.529 81.6354C386.833 80.3181 388.976 79.2342 391.951 78.4062L403.09 75.4554C409.313 73.7893 413.835 71.4257 416.655 68.3645C419.475 65.3033 420.873 60.9775 420.849 55.3871C420.849 49.8018 418.692 45.1197 414.377 41.3409C409.912 37.4115 404.216 35.4469 397.288 35.4469C389.867 35.4469 383.924 37.1456 379.459 40.543C374.768 44.1712 372.362 49.3852 372.24 56.1851H386.142C386.847 50.1631 390.774 47.1521 397.923 47.1521C401.175 47.1521 403.72 47.9826 405.558 49.6437C406.434 50.3899 407.138 51.3402 407.617 52.4218C408.096 53.5034 408.337 54.6876 408.321 55.884C408.347 57.0504 408.147 58.21 407.736 59.291C407.325 60.3721 406.711 61.3517 405.931 62.1694C404.338 63.8706 401.596 65.2481 397.704 66.302L387.601 68.8764C381.863 70.3819 377.687 72.7229 375.074 75.8995C372.39 79.2969 371.046 84.1295 371.041 90.3974V101.508H421.237V89.2683H383.562Z" fill="#212225"/>
</svg>
