<svg width="223" height="189" viewBox="0 0 223 189" fill="none" xmlns="http://www.w3.org/2000/svg">
<g clip-path="url(#clip0_102_26)">
<path d="M111.893 74.1973C100.096 74.1973 90.5332 83.2045 90.5332 94.3154C90.5332 105.426 100.096 114.434 111.893 114.434C123.689 114.434 133.252 105.426 133.252 94.3154C133.252 83.2045 123.689 74.1973 111.893 74.1973Z" fill="#087EA4"/>
<path d="M222.984 94.4979C222.984 78.7036 207.456 64.8512 182.731 55.7348C183.062 53.6817 183.361 51.6509 183.573 49.6572C186.012 26.9626 180.206 10.5828 167.234 3.52682C152.721 -4.36663 132.22 1.36261 111.492 16.9865C90.7639 1.36261 70.2637 -4.36663 55.75 3.52682C42.7781 10.5828 36.9726 26.9626 39.4112 49.6572C39.6236 51.6509 39.9147 53.6892 40.253 55.7496C38.1919 56.4908 36.1702 57.2764 34.2272 58.0991C12.1538 67.4452 0 80.3861 0 94.4979C0 110.292 15.5285 124.145 40.253 133.261C39.9147 135.314 39.6236 137.345 39.4112 139.339C36.9726 162.033 42.7781 178.413 55.75 185.469C60.2099 187.851 65.2635 189.069 70.3896 188.997C82.6771 188.997 97.0256 182.905 111.492 172.009C125.951 182.905 140.307 188.997 152.61 188.997C157.736 189.068 162.79 187.85 167.25 185.469C180.222 178.413 186.027 162.033 183.589 139.339C183.376 137.345 183.077 135.314 182.747 133.261C207.472 124.16 223 110.285 223 94.4979M152.516 10.0046C155.812 9.92974 159.07 10.6818 161.956 12.1837C170.963 17.0828 175.006 30.372 173.04 48.6418C172.906 49.887 172.749 51.1469 172.56 52.4143C162.279 49.4973 151.752 47.4169 141.094 46.1959C134.633 38.1042 127.448 30.5488 119.618 23.6125C131.914 14.6592 143.454 10.0046 152.508 10.0046M148.284 114.509C144.305 121.016 139.973 127.324 135.304 133.409C127.39 134.175 119.44 134.556 111.484 134.551C103.531 134.556 95.5836 134.175 87.6723 133.409C83.0159 127.324 78.6967 121.015 74.7319 114.509C70.7535 108.021 67.1379 101.342 63.8997 94.4979C67.1379 87.6541 70.7535 80.9745 74.7319 74.4864C78.6904 68.0065 82.9964 61.7207 87.633 55.6532C95.5587 54.8684 103.523 54.4775 111.492 54.4822C119.445 54.4777 127.393 54.8586 135.304 55.6236C139.957 61.7004 144.278 67.9961 148.252 74.4864C152.228 80.9761 155.843 87.6555 159.085 94.4979C155.843 101.34 152.228 108.02 148.252 114.509M164.497 107.098C166.993 113.512 169.043 120.073 170.633 126.739C163.734 128.765 156.702 130.362 149.582 131.519C152.288 127.675 154.91 123.675 157.448 119.52C159.958 115.414 162.31 111.271 164.528 107.127M96.5536 144.104C101.447 144.386 106.442 144.549 111.5 144.549C116.558 144.549 121.585 144.386 126.486 144.104C121.839 149.348 116.833 154.3 111.5 158.928C106.178 154.301 101.186 149.349 96.5536 144.104ZM73.4103 131.505C66.2876 130.352 59.2528 128.76 52.3517 126.739C53.9349 120.084 55.9766 113.533 58.4639 107.127C60.6508 111.271 62.9951 115.414 65.5438 119.52C68.0926 123.626 70.7278 127.673 73.4103 131.519M58.4639 81.861C55.9855 75.4796 53.9491 68.9535 52.3674 62.3238C59.2514 60.3 66.2673 58.6982 73.371 57.5284C70.6806 61.3602 68.0454 65.3329 65.5045 69.4761C62.9636 73.6192 60.643 77.7104 58.4246 81.861M126.439 44.8841C121.546 44.6024 116.55 44.4394 111.453 44.4394C106.397 44.4394 101.415 44.5876 96.5064 44.8841C101.138 39.6396 106.131 34.6878 111.453 30.0607C116.788 34.6866 121.794 39.6384 126.439 44.8841ZM157.433 69.4761C154.884 65.3156 152.249 61.3133 149.527 57.4691C156.666 58.6266 163.717 60.226 170.633 62.2571C169.046 68.9114 167.004 75.4622 164.52 81.8684C162.333 77.7253 159.981 73.5821 157.44 69.4835M49.976 48.6492C47.9858 30.3868 52.0527 17.0902 61.052 12.1911C63.939 10.6915 67.1962 9.93964 70.4919 10.0121C79.5462 10.0121 91.0864 14.6666 103.382 23.6199C95.5467 30.5611 88.3567 38.1215 81.8904 46.2182C71.2353 47.4449 60.7091 49.5177 50.4244 52.4143C50.2434 51.1469 50.0782 49.8944 49.9524 48.6492M38.5853 67.2229C39.7967 66.7288 41.0317 66.2347 42.2904 65.7406C44.7648 75.5763 48.1201 85.1965 52.3202 94.4979C48.1122 103.818 44.7541 113.458 42.2825 123.315C22.2386 115.569 10.6198 104.837 10.6198 94.4979C10.6198 84.6997 20.8463 74.7606 38.5853 67.2229ZM61.052 176.805C52.0527 171.906 47.9858 158.609 49.976 140.347C50.1018 139.101 50.267 137.849 50.448 136.574C60.7288 139.49 71.256 141.571 81.914 142.792C88.3771 150.887 95.5617 158.447 103.39 165.391C86.2485 177.865 70.5863 181.978 61.0756 176.805M173.032 140.347C174.999 158.616 170.955 171.906 161.948 176.805C152.445 181.993 136.775 177.865 119.642 165.391C127.467 158.447 134.649 150.887 141.11 142.792C151.768 141.572 162.295 139.491 172.576 136.574C172.764 137.849 172.922 139.101 173.055 140.347M180.749 123.3C178.27 113.449 174.91 103.814 170.703 94.4979C174.908 85.177 178.266 75.5369 180.741 65.6813C200.746 73.4265 212.396 84.1586 212.396 94.4979C212.396 104.837 200.777 115.569 180.733 123.315" fill="#087EA4"/>
</g>
<defs>
<clipPath id="clip0_102_26">
<rect width="223" height="189" fill="white"/>
</clipPath>
</defs>
</svg>
